<svg width="279" height="60" viewBox="0 0 279 60" fill="none" xmlns="http://www.w3.org/2000/svg">
<rect width="279" height="60" rx="30" fill="#0B2360"/>
<path opacity="0.4" d="M31.424 48.8354C41.978 48.8354 50.5336 40.2797 50.5336 29.7258C50.5336 19.1719 41.978 10.6162 31.424 10.6162C20.8701 10.6162 12.3145 19.1719 12.3145 29.7258C12.3145 40.2797 20.8701 48.8354 31.424 48.8354Z" fill="white"/>
<path d="M25.0801 29.5539L28.2332 30.3374L26.4178 37.6754C25.9974 39.3953 26.8382 39.9687 28.2905 38.9559L38.1893 32.0955C39.3932 31.2546 39.2212 30.28 37.788 29.9169L34.6349 29.1335L36.4504 21.7954C36.8708 20.0755 36.0299 19.5022 34.5776 20.5151L24.6788 27.3754C23.4749 28.2163 23.6469 29.1908 25.0801 29.5539Z" fill="white"/>
<path d="M69.9152 35.9457C69.0999 35.9457 68.3661 35.7673 67.7138 35.4106C67.0615 35.0437 66.5468 34.529 66.1697 33.8666C65.8028 33.2041 65.6194 32.4397 65.6194 31.5734C65.6194 30.7071 65.8079 29.9427 66.185 29.2803C66.5723 28.6178 67.0972 28.1082 67.7597 27.7515C68.4221 27.3846 69.161 27.2011 69.9764 27.2011C70.7917 27.2011 71.5306 27.3846 72.1931 27.7515C72.8556 28.1082 73.3753 28.6178 73.7524 29.2803C74.1397 29.9427 74.3334 30.7071 74.3334 31.5734C74.3334 32.4397 74.1346 33.2041 73.7371 33.8666C73.3499 34.529 72.8199 35.0437 72.1472 35.4106C71.4848 35.7673 70.7408 35.9457 69.9152 35.9457ZM69.9152 34.0806C70.3025 34.0806 70.6643 33.9889 71.0007 33.8054C71.3472 33.6118 71.6223 33.3264 71.8262 32.9493C72.03 32.5722 72.1319 32.1136 72.1319 31.5734C72.1319 30.7683 71.9179 30.1517 71.4899 29.7236C71.072 29.2854 70.5573 29.0662 69.9458 29.0662C69.3343 29.0662 68.8196 29.2854 68.4017 29.7236C67.9941 30.1517 67.7902 30.7683 67.7902 31.5734C67.7902 32.3786 67.989 33.0003 68.3865 33.4385C68.7941 33.8666 69.3037 34.0806 69.9152 34.0806ZM86.4213 27.2164C87.4608 27.2164 88.2965 27.5375 88.9284 28.1796C89.5705 28.8114 89.8916 29.6981 89.8916 30.8396V35.8081H87.7513V31.1301C87.7513 30.4676 87.5831 29.9631 87.2468 29.6166C86.9105 29.2599 86.4518 29.0815 85.8709 29.0815C85.29 29.0815 84.8262 29.2599 84.4797 29.6166C84.1434 29.9631 83.9752 30.4676 83.9752 31.1301V35.8081H81.835V31.1301C81.835 30.4676 81.6668 29.9631 81.3305 29.6166C80.9941 29.2599 80.5355 29.0815 79.9546 29.0815C79.3634 29.0815 78.8946 29.2599 78.5481 29.6166C78.2118 29.9631 78.0436 30.4676 78.0436 31.1301V35.8081H75.9033V27.3387H78.0436V28.363C78.3188 28.0063 78.6704 27.726 79.0985 27.5222C79.5367 27.3184 80.0157 27.2164 80.5355 27.2164C81.198 27.2164 81.7891 27.3591 82.3089 27.6445C82.8287 27.9197 83.2312 28.3171 83.5166 28.8369C83.7918 28.3477 84.1893 27.9553 84.709 27.6598C85.239 27.3642 85.8097 27.2164 86.4213 27.2164ZM96.6159 27.2164C97.6248 27.2164 98.4402 27.5375 99.0619 28.1796C99.6836 28.8114 99.9944 29.6981 99.9944 30.8396V35.8081H97.8542V31.1301C97.8542 30.4574 97.686 29.9427 97.3497 29.586C97.0133 29.2191 96.5547 29.0357 95.9738 29.0357C95.3827 29.0357 94.9138 29.2191 94.5673 29.586C94.231 29.9427 94.0628 30.4574 94.0628 31.1301V35.8081H91.9225V27.3387H94.0628V28.3936C94.3482 28.0267 94.71 27.7413 95.1482 27.5375C95.5967 27.3234 96.0859 27.2164 96.6159 27.2164ZM103.115 26.3297C102.738 26.3297 102.422 26.2125 102.167 25.9781C101.923 25.7335 101.8 25.4329 101.8 25.0762C101.8 24.7194 101.923 24.4239 102.167 24.1895C102.422 23.9449 102.738 23.8226 103.115 23.8226C103.492 23.8226 103.803 23.9449 104.048 24.1895C104.302 24.4239 104.43 24.7194 104.43 25.0762C104.43 25.4329 104.302 25.7335 104.048 25.9781C103.803 26.2125 103.492 26.3297 103.115 26.3297ZM104.17 27.3387V35.8081H102.03V27.3387H104.17ZM105.734 31.5734C105.734 30.6969 105.913 29.9325 106.269 29.2803C106.626 28.6178 107.12 28.1082 107.752 27.7515C108.384 27.3846 109.108 27.2011 109.923 27.2011C110.973 27.2011 111.839 27.4661 112.522 27.9961C113.215 28.5159 113.679 29.2497 113.913 30.1975H111.605C111.482 29.8306 111.273 29.5453 110.978 29.3414C110.693 29.1274 110.336 29.0204 109.908 29.0204C109.296 29.0204 108.812 29.2446 108.455 29.693C108.099 30.1313 107.92 30.7581 107.92 31.5734C107.92 32.3786 108.099 33.0054 108.455 33.4538C108.812 33.8921 109.296 34.1112 109.908 34.1112C110.774 34.1112 111.34 33.7239 111.605 32.9493H113.913C113.679 33.8666 113.215 34.5953 112.522 35.1354C111.829 35.6756 110.963 35.9457 109.923 35.9457C109.108 35.9457 108.384 35.7673 107.752 35.4106C107.12 35.0437 106.626 34.5341 106.269 33.8819C105.913 33.2194 105.734 32.4499 105.734 31.5734ZM120.251 27.2164C120.893 27.2164 121.464 27.3591 121.963 27.6445C122.462 27.9197 122.85 28.3324 123.125 28.8828C123.41 29.423 123.553 30.0752 123.553 30.8396V35.8081H121.413V31.1301C121.413 30.4574 121.245 29.9427 120.908 29.586C120.572 29.2191 120.113 29.0357 119.532 29.0357C118.941 29.0357 118.472 29.2191 118.126 29.586C117.79 29.9427 117.621 30.4574 117.621 31.1301V35.8081H115.481V24.4952H117.621V28.3936C117.897 28.0267 118.263 27.7413 118.722 27.5375C119.181 27.3234 119.69 27.2164 120.251 27.2164ZM125.038 31.5428C125.038 30.6867 125.206 29.9274 125.542 29.265C125.889 28.6025 126.353 28.0929 126.934 27.7362C127.525 27.3795 128.182 27.2011 128.906 27.2011C129.538 27.2011 130.088 27.3285 130.557 27.5833C131.036 27.8381 131.418 28.1592 131.703 28.5465V27.3387H133.859V35.8081H131.703V34.5698C131.428 34.9673 131.046 35.2985 130.557 35.5635C130.078 35.8183 129.522 35.9457 128.89 35.9457C128.177 35.9457 127.525 35.7622 126.934 35.3953C126.353 35.0284 125.889 34.5137 125.542 33.8513C125.206 33.1786 125.038 32.4091 125.038 31.5428ZM131.703 31.5734C131.703 31.0536 131.601 30.6103 131.398 30.2434C131.194 29.8663 130.919 29.5809 130.572 29.3873C130.226 29.1834 129.854 29.0815 129.456 29.0815C129.059 29.0815 128.692 29.1784 128.355 29.372C128.019 29.5656 127.744 29.851 127.53 30.2281C127.326 30.595 127.224 31.0333 127.224 31.5428C127.224 32.0524 127.326 32.5009 127.53 32.8882C127.744 33.2653 128.019 33.5557 128.355 33.7596C128.702 33.9634 129.069 34.0653 129.456 34.0653C129.854 34.0653 130.226 33.9685 130.572 33.7748C130.919 33.571 131.194 33.2856 131.398 32.9187C131.601 32.5416 131.703 32.0932 131.703 31.5734ZM140.643 27.2164C141.652 27.2164 142.467 27.5375 143.089 28.1796C143.71 28.8114 144.021 29.6981 144.021 30.8396V35.8081H141.881V31.1301C141.881 30.4574 141.713 29.9427 141.376 29.586C141.04 29.2191 140.581 29.0357 140 29.0357C139.409 29.0357 138.941 29.2191 138.594 29.586C138.258 29.9427 138.09 30.4574 138.09 31.1301V35.8081H135.949V27.3387H138.09V28.3936C138.375 28.0267 138.737 27.7413 139.175 27.5375C139.623 27.3234 140.113 27.2164 140.643 27.2164ZM150.75 27.2164C151.759 27.2164 152.574 27.5375 153.196 28.1796C153.817 28.8114 154.128 29.6981 154.128 30.8396V35.8081H151.988V31.1301C151.988 30.4574 151.82 29.9427 151.484 29.586C151.147 29.2191 150.689 29.0357 150.108 29.0357C149.517 29.0357 149.048 29.2191 148.701 29.586C148.365 29.9427 148.197 30.4574 148.197 31.1301V35.8081H146.056V27.3387H148.197V28.3936C148.482 28.0267 148.844 27.7413 149.282 27.5375C149.731 27.3234 150.22 27.2164 150.75 27.2164ZM164.037 31.39C164.037 31.6957 164.016 31.9709 163.976 32.2155H157.784C157.835 32.827 158.049 33.306 158.426 33.6525C158.803 33.9991 159.267 34.1723 159.817 34.1723C160.612 34.1723 161.178 33.8309 161.514 33.1481H163.823C163.578 33.9634 163.109 34.6361 162.416 35.166C161.723 35.6858 160.872 35.9457 159.863 35.9457C159.048 35.9457 158.314 35.7673 157.662 35.4106C157.02 35.0437 156.515 34.529 156.148 33.8666C155.792 33.2041 155.613 32.4397 155.613 31.5734C155.613 30.6969 155.792 29.9274 156.148 29.265C156.505 28.6025 157.004 28.0929 157.647 27.7362C158.289 27.3795 159.027 27.2011 159.863 27.2011C160.668 27.2011 161.387 27.3744 162.019 27.7209C162.661 28.0674 163.155 28.5617 163.502 29.2038C163.858 29.8357 164.037 30.5644 164.037 31.39ZM161.82 30.7785C161.81 30.2281 161.611 29.7899 161.224 29.4637C160.837 29.1274 160.363 28.9592 159.802 28.9592C159.272 28.9592 158.824 29.1223 158.457 29.4484C158.1 29.7644 157.881 30.2077 157.799 30.7785H161.82ZM167.739 24.4952V35.8081H165.599V24.4952H167.739ZM181.37 31.39C181.37 31.6957 181.349 31.9709 181.309 32.2155H175.117C175.168 32.827 175.382 33.306 175.759 33.6525C176.136 33.9991 176.6 34.1723 177.15 34.1723C177.945 34.1723 178.511 33.8309 178.847 33.1481H181.156C180.911 33.9634 180.442 34.6361 179.749 35.166C179.056 35.6858 178.205 35.9457 177.196 35.9457C176.381 35.9457 175.647 35.7673 174.995 35.4106C174.353 35.0437 173.848 34.529 173.481 33.8666C173.125 33.2041 172.946 32.4397 172.946 31.5734C172.946 30.6969 173.125 29.9274 173.481 29.265C173.838 28.6025 174.337 28.0929 174.98 27.7362C175.622 27.3795 176.36 27.2011 177.196 27.2011C178.001 27.2011 178.72 27.3744 179.352 27.7209C179.994 28.0674 180.488 28.5617 180.835 29.2038C181.191 29.8357 181.37 30.5644 181.37 31.39ZM179.153 30.7785C179.143 30.2281 178.944 29.7899 178.557 29.4637C178.17 29.1274 177.696 28.9592 177.135 28.9592C176.605 28.9592 176.157 29.1223 175.79 29.4484C175.433 29.7644 175.214 30.2077 175.132 30.7785H179.153ZM187.61 35.8081L185.867 33.1786L184.323 35.8081H182.03L184.797 31.5581L181.999 27.3387H184.415L186.142 29.9529L187.702 27.3387H189.995L187.213 31.5581L190.025 35.8081H187.61ZM193.328 28.5617C193.603 28.1745 193.98 27.8534 194.459 27.5986C194.949 27.3336 195.504 27.2011 196.126 27.2011C196.849 27.2011 197.502 27.3795 198.083 27.7362C198.674 28.0929 199.137 28.6025 199.474 29.265C199.82 29.9173 199.994 30.6765 199.994 31.5428C199.994 32.4091 199.82 33.1786 199.474 33.8513C199.137 34.5137 198.674 35.0284 198.083 35.3953C197.502 35.7622 196.849 35.9457 196.126 35.9457C195.504 35.9457 194.954 35.8183 194.475 35.5635C194.006 35.3087 193.624 34.9877 193.328 34.6004V39.8441H191.188V27.3387H193.328V28.5617ZM197.807 31.5428C197.807 31.0333 197.7 30.595 197.486 30.2281C197.283 29.851 197.007 29.5656 196.661 29.372C196.325 29.1784 195.958 29.0815 195.56 29.0815C195.173 29.0815 194.806 29.1834 194.459 29.3873C194.123 29.5809 193.848 29.8663 193.634 30.2434C193.43 30.6205 193.328 31.0638 193.328 31.5734C193.328 32.083 193.43 32.5264 193.634 32.9034C193.848 33.2805 194.123 33.571 194.459 33.7748C194.806 33.9685 195.173 34.0653 195.56 34.0653C195.958 34.0653 196.325 33.9634 196.661 33.7596C197.007 33.5557 197.283 33.2653 197.486 32.8882C197.7 32.5111 197.807 32.0626 197.807 31.5428ZM209.422 31.39C209.422 31.6957 209.402 31.9709 209.361 32.2155H203.169C203.22 32.827 203.434 33.306 203.811 33.6525C204.189 33.9991 204.652 34.1723 205.203 34.1723C205.998 34.1723 206.563 33.8309 206.9 33.1481H209.208C208.963 33.9634 208.495 34.6361 207.802 35.166C207.108 35.6858 206.257 35.9457 205.248 35.9457C204.433 35.9457 203.699 35.7673 203.047 35.4106C202.405 35.0437 201.9 34.529 201.534 33.8666C201.177 33.2041 200.999 32.4397 200.999 31.5734C200.999 30.6969 201.177 29.9274 201.534 29.265C201.89 28.6025 202.39 28.0929 203.032 27.7362C203.674 27.3795 204.413 27.2011 205.248 27.2011C206.054 27.2011 206.772 27.3744 207.404 27.7209C208.046 28.0674 208.54 28.5617 208.887 29.2038C209.244 29.8357 209.422 30.5644 209.422 31.39ZM207.205 30.7785C207.195 30.2281 206.996 29.7899 206.609 29.4637C206.222 29.1274 205.748 28.9592 205.187 28.9592C204.657 28.9592 204.209 29.1223 203.842 29.4484C203.485 29.7644 203.266 30.2077 203.185 30.7785H207.205ZM213.125 28.6535C213.4 28.205 213.756 27.8534 214.195 27.5986C214.643 27.3438 215.153 27.2164 215.723 27.2164V29.4637H215.158C214.485 29.4637 213.976 29.6217 213.629 29.9376C213.293 30.2536 213.125 30.8039 213.125 31.5887V35.8081H210.984V27.3387H213.125V28.6535ZM218.25 26.3297C217.873 26.3297 217.557 26.2125 217.303 25.9781C217.058 25.7335 216.936 25.4329 216.936 25.0762C216.936 24.7194 217.058 24.4239 217.303 24.1895C217.557 23.9449 217.873 23.8226 218.25 23.8226C218.628 23.8226 218.938 23.9449 219.183 24.1895C219.438 24.4239 219.565 24.7194 219.565 25.0762C219.565 25.4329 219.438 25.7335 219.183 25.9781C218.938 26.2125 218.628 26.3297 218.25 26.3297ZM219.305 27.3387V35.8081H217.165V27.3387H219.305ZM229.293 31.39C229.293 31.6957 229.273 31.9709 229.232 32.2155H223.04C223.091 32.827 223.305 33.306 223.682 33.6525C224.06 33.9991 224.523 34.1723 225.074 34.1723C225.869 34.1723 226.434 33.8309 226.771 33.1481H229.079C228.834 33.9634 228.366 34.6361 227.673 35.166C226.979 35.6858 226.128 35.9457 225.119 35.9457C224.304 35.9457 223.57 35.7673 222.918 35.4106C222.276 35.0437 221.771 34.529 221.405 33.8666C221.048 33.2041 220.87 32.4397 220.87 31.5734C220.87 30.6969 221.048 29.9274 221.405 29.265C221.761 28.6025 222.261 28.0929 222.903 27.7362C223.545 27.3795 224.284 27.2011 225.119 27.2011C225.925 27.2011 226.643 27.3744 227.275 27.7209C227.917 28.0674 228.411 28.5617 228.758 29.2038C229.115 29.8357 229.293 30.5644 229.293 31.39ZM227.076 30.7785C227.066 30.2281 226.867 29.7899 226.48 29.4637C226.093 29.1274 225.619 28.9592 225.058 28.9592C224.528 28.9592 224.08 29.1223 223.713 29.4484C223.356 29.7644 223.137 30.2077 223.056 30.7785H227.076ZM235.549 27.2164C236.558 27.2164 237.373 27.5375 237.995 28.1796C238.616 28.8114 238.927 29.6981 238.927 30.8396V35.8081H236.787V31.1301C236.787 30.4574 236.619 29.9427 236.282 29.586C235.946 29.2191 235.487 29.0357 234.906 29.0357C234.315 29.0357 233.847 29.2191 233.5 29.586C233.164 29.9427 232.996 30.4574 232.996 31.1301V35.8081H230.855V27.3387H232.996V28.3936C233.281 28.0267 233.643 27.7413 234.081 27.5375C234.529 27.3234 235.019 27.2164 235.549 27.2164ZM240.412 31.5734C240.412 30.6969 240.59 29.9325 240.947 29.2803C241.304 28.6178 241.798 28.1082 242.43 27.7515C243.062 27.3846 243.786 27.2011 244.601 27.2011C245.651 27.2011 246.517 27.4661 247.2 27.9961C247.893 28.5159 248.357 29.2497 248.591 30.1975H246.283C246.16 29.8306 245.951 29.5453 245.656 29.3414C245.37 29.1274 245.014 29.0204 244.586 29.0204C243.974 29.0204 243.49 29.2446 243.133 29.693C242.777 30.1313 242.598 30.7581 242.598 31.5734C242.598 32.3786 242.777 33.0054 243.133 33.4538C243.49 33.8921 243.974 34.1112 244.586 34.1112C245.452 34.1112 246.018 33.7239 246.283 32.9493H248.591C248.357 33.8666 247.893 34.5953 247.2 35.1354C246.507 35.6756 245.64 35.9457 244.601 35.9457C243.786 35.9457 243.062 35.7673 242.43 35.4106C241.798 35.0437 241.304 34.5341 240.947 33.8819C240.59 33.2194 240.412 32.4499 240.412 31.5734ZM258.032 31.39C258.032 31.6957 258.012 31.9709 257.971 32.2155H251.779C251.83 32.827 252.044 33.306 252.421 33.6525C252.799 33.9991 253.262 34.1723 253.813 34.1723C254.608 34.1723 255.173 33.8309 255.51 33.1481H257.818C257.573 33.9634 257.105 34.6361 256.412 35.166C255.719 35.6858 254.868 35.9457 253.859 35.9457C253.043 35.9457 252.309 35.7673 251.657 35.4106C251.015 35.0437 250.511 34.529 250.144 33.8666C249.787 33.2041 249.609 32.4397 249.609 31.5734C249.609 30.6969 249.787 29.9274 250.144 29.265C250.5 28.6025 251 28.0929 251.642 27.7362C252.284 27.3795 253.023 27.2011 253.859 27.2011C254.664 27.2011 255.382 27.3744 256.014 27.7209C256.656 28.0674 257.15 28.5617 257.497 29.2038C257.854 29.8357 258.032 30.5644 258.032 31.39ZM255.815 30.7785C255.805 30.2281 255.606 29.7899 255.219 29.4637C254.832 29.1274 254.358 28.9592 253.797 28.9592C253.267 28.9592 252.819 29.1223 252.452 29.4484C252.095 29.7644 251.876 30.2077 251.795 30.7785H255.815Z" fill="white"/>
</svg>
