<svg width="17" height="15" viewBox="0 0 17 15" fill="none" xmlns="http://www.w3.org/2000/svg">
<g id="Iconly/Bold/Filter">
<g id="Filter">
<path id="Vector" d="M13.4559 8.9534C14.9997 8.9534 16.25 10.1827 16.25 11.6994C16.25 13.2151 14.9997 14.4444 13.4559 14.4444C11.9131 14.4444 10.6618 13.2151 10.6618 11.6994C10.6618 10.1827 11.9131 8.9534 13.4559 8.9534ZM6.56767 10.5283C7.24385 10.5283 7.79273 11.0676 7.79273 11.7319C7.79273 12.3953 7.24385 12.9355 6.56767 12.9355H1.22506C0.548886 12.9355 0 12.3953 0 11.7319C0 11.0676 0.548886 10.5283 1.22506 10.5283H6.56767ZM2.79408 0C4.33782 0 5.58816 1.2293 5.58816 2.74508C5.58816 4.26175 4.33782 5.49105 2.79408 5.49105C1.25124 5.49105 0 4.26175 0 2.74508C0 1.2293 1.25124 0 2.79408 0ZM15.0258 1.54239C15.7011 1.54239 16.25 2.08165 16.25 2.74508C16.25 3.4094 15.7011 3.94866 15.0258 3.94866H9.68323C9.00705 3.94866 8.45817 3.4094 8.45817 2.74508C8.45817 2.08165 9.00705 1.54239 9.68323 1.54239H15.0258Z" fill="#D5D5D5"/>
</g>
</g>
</svg>
