<svg width="38" height="38" viewBox="0 0 38 38" fill="none" xmlns="http://www.w3.org/2000/svg">
<g id="Inbox">
<path id="Vector" opacity="0.35" d="M28.2355 33.1081H9.6641C7.09969 33.1081 5.02124 31.0297 5.02124 28.4653V9.89383C5.02124 7.32943 7.09969 5.25098 9.6641 5.25098H28.2355C30.7999 5.25098 32.8784 7.32943 32.8784 9.89383V28.4653C32.8784 31.0297 30.7999 33.1081 28.2355 33.1081Z" fill="#0B2360"/>
<path id="Vector_2" d="M32.8784 23.8223V28.4651C32.8784 31.0295 30.7999 33.108 28.2355 33.108H9.6641C7.09969 33.108 5.02124 31.0295 5.02124 28.4651V23.8223H11.741C12.9806 23.8223 14.1893 24.4893 14.6706 25.6314C15.3748 27.2982 17.023 28.4651 18.9498 28.4651C20.8766 28.4651 22.5248 27.2982 23.229 25.6314C23.7103 24.4893 24.9174 23.8223 26.1586 23.8223H32.8784Z" fill="#0B2360"/>
</g>
</svg>
