<svg width="38" height="38" viewBox="0 0 38 38" fill="none" xmlns="http://www.w3.org/2000/svg">
<g id="Messaging">
<path id="Vector" opacity="0.35" d="M16.6289 3.7041C9.36436 3.7041 3.47412 9.59434 3.47412 16.8589C3.47412 18.9528 3.97555 20.9245 4.84686 22.6826L3.52519 27.9692C3.22341 29.1733 4.31448 30.2643 5.51853 29.9626L10.8052 28.6409C12.5633 29.5122 14.535 30.0136 16.6289 30.0136C23.8934 30.0136 29.7836 24.1234 29.7836 16.8589C29.7836 9.59434 23.8934 3.7041 16.6289 3.7041Z" fill="#0B2360"/>
<path id="Vector_2" d="M32.4101 24.7461L34.3771 32.6111C34.6789 33.8151 33.5878 34.9062 32.3838 34.6044L24.5188 32.6374L32.4101 24.7461Z" fill="#0B2360"/>
<path id="Vector_3" d="M27.9484 10.1816C29.1075 12.1394 29.7838 14.4175 29.7838 16.8581C29.7838 24.1226 23.8936 30.0128 16.6291 30.0128C14.1885 30.0128 11.9104 29.3365 9.95264 28.1774C12.2416 32.051 16.448 34.6557 21.2719 34.6557C28.5364 34.6557 34.4267 28.7655 34.4267 21.5009C34.4267 16.677 31.822 12.4706 27.9484 10.1816Z" fill="#0B2360"/>
</g>
</svg>
