<svg width="17" height="17" viewBox="0 0 17 17" fill="none" xmlns="http://www.w3.org/2000/svg">
<g id="Group 14">
<path id="expand 1" d="M2.23507 7.97169C2.19369 7.97545 2.17279 7.92448 2.20217 7.8951C2.28356 7.81371 2.36495 7.73232 2.44634 7.65094C2.57251 7.52477 2.70019 7.39708 2.82636 7.27092C2.87196 7.22531 2.91756 7.17971 2.96317 7.13411C3.02549 7.07179 3.09237 7.01403 3.14861 6.94562C3.28846 6.78145 3.31578 6.54123 3.21996 6.34813C3.12262 6.1535 2.91278 6.03487 2.69537 6.04852C2.5479 6.05913 2.42324 6.12904 2.3214 6.23089C2.25148 6.30081 2.18003 6.37226 2.11011 6.44218C2.00978 6.5425 1.91098 6.64131 1.81065 6.74163C1.67081 6.88148 1.53096 7.02133 1.39111 7.16118C1.27711 7.27518 1.16158 7.39071 1.04758 7.50471C0.954851 7.59744 0.862126 7.69016 0.767881 7.78441C0.685797 7.86649 0.602193 7.9501 0.520109 8.03218C0.472986 8.0793 0.419783 8.12642 0.378743 8.17963C0.243463 8.3514 0.223745 8.59618 0.331728 8.78929C0.377354 8.86835 0.447303 8.93222 0.511171 8.99609C0.641947 9.12687 0.771203 9.25612 0.90198 9.3869C1.02819 9.51311 1.15593 9.64085 1.28214 9.76706C1.37642 9.86134 1.47223 9.95715 1.56651 10.0514C1.67447 10.1594 1.78092 10.2658 1.88889 10.3738C2.03183 10.5167 2.17477 10.6597 2.31771 10.8026C2.41503 10.9 2.52603 10.9714 2.66591 10.9897C2.88181 11.0171 3.09616 10.9092 3.20559 10.7207C3.3135 10.5337 3.29825 10.2935 3.16899 10.1217C3.10816 10.0396 3.02756 9.97113 2.95609 9.89965C2.84356 9.78713 2.73256 9.67612 2.62003 9.56359C2.5151 9.45866 2.40866 9.35222 2.30373 9.24729C2.23666 9.18022 2.28447 9.0654 2.37932 9.06553C2.63842 9.06586 2.89752 9.06534 3.15662 9.06653C3.46374 9.06659 3.76933 9.06817 4.07492 9.06671C4.36075 9.06676 4.64658 9.06682 4.93241 9.06687C5.2152 9.06693 5.50103 9.06698 5.78382 9.06703C5.99971 9.06708 6.2156 9.06712 6.42997 9.06868C6.47558 9.06869 6.52119 9.0687 6.5668 9.0687C6.77053 9.0657 6.96056 8.95475 7.05327 8.77081C7.14749 8.58838 7.12769 8.36184 7.0045 8.1961C6.90109 8.0562 6.73688 7.97711 6.56356 7.97708C6.40392 7.97553 6.24428 7.97702 6.08312 7.97699C5.79881 7.97541 5.5145 7.97688 5.23019 7.97531C4.917 7.97525 4.60684 7.97519 4.29365 7.97513C3.94092 7.97506 3.5882 7.97499 3.23395 7.9734C2.90099 7.97182 2.56803 7.97328 2.23507 7.97169ZM7.94301 10.4783C7.94307 10.8007 7.94313 11.123 7.94319 11.4453C7.94172 11.7083 7.94329 11.9713 7.94182 12.2344C7.94187 12.4837 7.94192 12.7331 7.94044 12.9839C7.93898 13.2652 7.94055 13.5464 7.93909 13.8277C7.93915 14.1713 7.93922 14.5119 7.93928 14.8555C7.93928 14.8656 7.92708 14.8706 7.91994 14.8635C7.76204 14.7056 7.60286 14.5464 7.44507 14.3886C7.28236 14.2259 7.12117 14.0647 6.95846 13.902C6.86722 13.8108 6.75774 13.7469 6.63003 13.7286C6.46279 13.7043 6.29252 13.762 6.17243 13.8821L6.17395 13.8806C6.04778 14.0068 5.99004 14.1892 6.02353 14.3625C6.04483 14.4811 6.10567 14.5815 6.1893 14.6651C6.30944 14.7852 6.42805 14.9038 6.54818 15.024C6.73674 15.2125 6.9253 15.4011 7.11538 15.5912C7.28418 15.76 7.45449 15.9303 7.62328 16.0991C7.73125 16.207 7.83922 16.315 7.94718 16.423C7.99584 16.4716 8.04298 16.5188 8.09165 16.5674C8.18593 16.6617 8.30605 16.7241 8.43984 16.7363C8.60252 16.75 8.75911 16.6907 8.87464 16.5782C8.91416 16.5387 8.95368 16.4992 8.99168 16.4612C9.10873 16.3441 9.22577 16.2271 9.34282 16.1101C9.51003 15.9428 9.67724 15.7756 9.84444 15.6084C10.0269 15.426 10.2093 15.2436 10.3917 15.0612C10.5163 14.9366 10.6394 14.8134 10.7641 14.6888C10.831 14.6219 10.8903 14.5505 10.9252 14.4608C10.986 14.2996 10.9677 14.1172 10.8749 13.9727C10.6864 13.6777 10.2698 13.6442 10.0235 13.8874C9.93231 13.9786 9.84263 14.0683 9.75143 14.1595C9.55838 14.3526 9.36533 14.5456 9.17228 14.7386C9.12066 14.7903 9.03241 14.7537 9.03239 14.6807C9.03237 14.5916 9.03236 14.5024 9.03234 14.4133C9.0323 14.2126 9.03074 14.0104 9.03222 13.8082C9.0322 13.6957 9.03218 13.5862 9.03216 13.4737C9.03212 13.2487 9.03207 13.0206 9.03203 12.7956C9.03201 12.7013 9.032 12.6071 9.03198 12.5128C9.03193 12.2848 9.03037 12.0552 9.03185 11.8256C9.03183 11.7222 9.03181 11.6188 9.03179 11.5154C9.03175 11.3026 9.03171 11.0928 9.03167 10.8799C9.03165 10.7765 9.03163 10.6762 9.03161 10.5728C9.03159 10.5059 9.03462 10.439 9.02245 10.3721C8.98288 10.1532 8.80496 9.97831 8.58754 9.93722C8.3686 9.89461 8.14208 9.99339 8.02201 10.1804C7.97337 10.2716 7.94299 10.375 7.94301 10.4783ZM13.8853 6.17228C13.6725 6.3851 13.6786 6.73174 13.887 6.94615C13.9691 7.02827 14.0527 7.1119 14.1348 7.19402C14.2991 7.35825 14.4648 7.524 14.629 7.68823C14.7231 7.7823 14.6569 7.94315 14.5239 7.94372C14.3033 7.94466 14.0824 7.9456 13.8628 7.94655C13.5618 7.94649 13.2608 7.94947 12.9597 7.94942C12.6785 7.95088 12.3987 7.95083 12.1175 7.9523C11.8392 7.95376 11.5595 7.95371 11.2797 7.9567C11.0654 7.95818 10.8525 7.95814 10.6381 7.95961C10.5895 7.95961 10.5424 7.96112 10.4952 7.95959C10.3067 7.96259 10.1304 8.05986 10.027 8.21796C9.91604 8.38974 9.90848 8.61019 10.0089 8.78657C10.1032 8.95687 10.2841 9.06181 10.4787 9.06489C10.6231 9.06644 10.7676 9.06495 10.9135 9.06497C11.1994 9.06503 11.4852 9.06508 11.7695 9.06666C12.0797 9.06672 12.3898 9.06678 12.7015 9.06836C13.0512 9.06842 13.3993 9.07001 13.7475 9.06856C14.0744 9.07014 14.4013 9.06868 14.7281 9.07026C14.7693 9.07027 14.7911 9.12291 14.762 9.152C14.563 9.35095 14.365 9.54901 14.1657 9.74824C14.0593 9.85465 13.9514 9.95953 13.8465 10.0675C13.7188 10.1982 13.6596 10.3852 13.6961 10.5646C13.7387 10.7714 13.9029 10.9386 14.1082 10.9858C14.2937 11.0284 14.4837 10.9692 14.6175 10.8384C14.6692 10.7867 14.7208 10.7351 14.771 10.6849C14.882 10.5739 14.9929 10.463 15.1039 10.352C15.3304 10.1255 15.5569 9.89902 15.7834 9.67253C16.0236 9.43236 16.2637 9.19219 16.5054 8.9505C16.5176 8.93834 16.5297 8.92617 16.5419 8.91401C16.6453 8.81065 16.7182 8.66167 16.7227 8.51419C16.7258 8.37432 16.6908 8.21771 16.5934 8.11127C16.5189 8.03068 16.4368 7.95464 16.3577 7.87557C16.2042 7.72198 16.049 7.56687 15.8955 7.41329C15.7419 7.2597 15.5883 7.10612 15.4362 6.95405C15.2826 6.80046 15.129 6.64688 14.9755 6.49329C14.8751 6.39293 14.7747 6.29256 14.6759 6.19372C14.6181 6.13594 14.5558 6.08575 14.4797 6.05533C14.3475 5.99905 14.1954 5.99902 14.0632 6.05221C13.9993 6.07956 13.937 6.1206 13.8853 6.17228ZM8.87154 0.386331C9.08443 0.599223 9.29733 0.812115 9.51022 1.02501C9.75504 1.26983 9.99987 1.51466 10.2447 1.75948C10.3344 1.8492 10.4241 1.93892 10.5139 2.02864C10.5899 2.10467 10.6659 2.18071 10.742 2.25674C10.8165 2.33125 10.8879 2.40576 10.926 2.50763C10.999 2.70226 10.9534 2.92726 10.812 3.07775C10.6707 3.2252 10.4548 3.28293 10.2587 3.2236C10.1309 3.18405 10.0427 3.09889 9.9515 3.00765C9.89524 2.95139 9.83745 2.8936 9.78119 2.83734C9.55309 2.60924 9.32499 2.38114 9.09689 2.15304C9.07389 2.13004 9.03456 2.14633 9.03456 2.17886C9.03462 2.49657 9.03469 2.81639 9.03475 3.13366C9.0348 3.44078 9.03486 3.75093 9.03492 4.05805C9.03498 4.34388 9.03503 4.62971 9.03509 4.91858C9.03514 5.2044 9.0352 5.48719 9.03525 5.77302C9.03529 5.98891 9.03533 6.20481 9.0369 6.42222C9.0369 6.47391 9.03691 6.52256 9.03692 6.57425C9.03544 6.77038 8.93361 6.95129 8.76335 7.04856C8.58548 7.15039 8.35743 7.14426 8.18713 7.02868C8.03659 6.92679 7.94686 6.75497 7.94682 6.57253C7.94679 6.41441 7.94676 6.25629 7.94673 6.09817C7.94667 5.8093 7.94662 5.52043 7.94504 5.23004C7.94346 4.91533 7.94492 4.60061 7.94334 4.28589C7.94327 3.93013 7.94321 3.57436 7.94162 3.21708C7.94003 2.88107 7.94149 2.54507 7.93991 2.20907C7.9399 2.1653 7.88698 2.14339 7.85603 2.17434C7.77099 2.25938 7.68552 2.34485 7.60091 2.42946C7.47322 2.55715 7.34401 2.68635 7.21633 2.81404C7.16464 2.86572 7.11448 2.91589 7.0628 2.96757C6.97463 3.05573 6.89103 3.1515 6.77397 3.20165C6.57026 3.28979 6.32851 3.24261 6.17189 3.08599C6.01526 2.92936 5.9696 2.68609 6.05622 2.4839C6.09877 2.38356 6.17326 2.31212 6.24774 2.23764C6.33135 2.15403 6.41495 2.07043 6.49856 1.98682C6.59584 1.88954 6.69464 1.79073 6.79193 1.69345C6.90898 1.5764 7.02754 1.45784 7.14459 1.34079C7.28747 1.1979 7.43188 1.0535 7.57477 0.91061C7.68117 0.804205 7.78758 0.697799 7.89398 0.591394C7.95935 0.526031 8.02319 0.462188 8.08855 0.396825C8.21624 0.269138 8.39259 0.205316 8.572 0.235758C8.68603 0.252504 8.79095 0.305736 8.87154 0.386331Z" fill="#343A40"/>
<circle id="Ellipse 2" cx="8.5" cy="8.48535" r="0.5" fill="#343A40"/>
</g>
</svg>
