<svg width="49" height="45" viewBox="0 0 49 45" fill="none" xmlns="http://www.w3.org/2000/svg">
<g filter="url(#filter0_b_1_8449)">
<rect x="0.873047" y="0.891113" width="47.7091" height="43.2364" rx="7.15846" fill="#090B0F"/>
</g>
<path d="M28.5652 21.8959C28.2658 21.8959 27.9663 21.746 27.7916 21.4836L23.7987 15.512C23.6615 15.2996 23.6116 15.0497 23.6615 14.8123C23.7114 14.575 23.8487 14.3501 24.0608 14.2127L31.1232 9.47778C31.6722 9.10299 32.3335 8.97807 32.9823 9.103C33.6312 9.22793 34.1927 9.60272 34.567 10.1524L36.8379 13.538C37.5991 14.6749 37.2996 16.224 36.1517 16.9861L29.1018 21.721C28.9271 21.8459 28.7524 21.8959 28.5652 21.8959ZM25.8825 15.2496L28.8273 19.6597L35.1035 15.4495C35.3905 15.2621 35.4654 14.8748 35.2657 14.5999L32.9948 11.2143C32.9075 11.0769 32.7702 10.9895 32.608 10.952C32.4458 10.9145 32.2836 10.952 32.1463 11.0394L25.8825 15.2496Z" fill="white"/>
<path d="M22.2142 25.2939C21.9147 25.2939 21.6153 25.144 21.4406 24.8817L18.2463 20.1092C17.9593 19.6845 18.0716 19.0973 18.5083 18.8099L24.4727 14.8121C24.6848 14.6747 24.9343 14.6247 25.1714 14.6747C25.421 14.7247 25.6331 14.8621 25.7704 15.0745L28.9647 19.8469C29.2516 20.2717 29.1393 20.8589 28.7026 21.1462L22.7383 25.144C22.576 25.2439 22.3889 25.2939 22.2142 25.2939ZM20.3176 19.8469L22.4637 23.0577L26.8684 20.1092L24.7222 16.886L20.3176 19.8469Z" fill="white"/>
<path d="M16.3992 28.5172C15.7005 28.5172 15.0017 28.1799 14.5775 27.5428L13.1675 25.4439C12.8431 24.9567 12.7308 24.382 12.8431 23.8073C12.9554 23.2326 13.2798 22.7454 13.7664 22.4206L18.6951 19.1224C19.1194 18.8351 19.7058 18.9475 19.9928 19.3848L22.7878 23.5575C23.0748 23.9823 22.9625 24.5694 22.5258 24.8568L17.5971 28.1549C17.2352 28.3923 16.811 28.5172 16.3992 28.5172ZM18.9572 21.1838L14.8146 23.9573C14.6773 24.0572 14.6274 24.2446 14.7272 24.3945L16.1372 26.4934C16.237 26.6308 16.4242 26.6807 16.5739 26.5808L20.7165 23.8073L18.9572 21.1838Z" fill="white"/>
<path d="M19.2445 35.9257C19.1197 35.9257 18.9824 35.9007 18.8577 35.8382C18.3835 35.6258 18.1839 35.0637 18.396 34.6014L23.9985 22.3581C24.2106 21.8834 24.7721 21.6835 25.2338 21.8958C25.7079 22.1082 25.9076 22.6704 25.6955 23.1327L20.093 35.376C19.9307 35.7258 19.5939 35.9257 19.2445 35.9257Z" fill="white"/>
<path d="M30.3246 35.9257C29.9628 35.9257 29.6259 35.7258 29.4761 35.376L23.936 23.1327C23.7239 22.6579 23.936 22.1082 24.3977 21.8958C24.8594 21.6835 25.4209 21.8959 25.633 22.3581L31.1731 34.6014C31.3852 35.0761 31.1731 35.6258 30.7114 35.8382C30.5866 35.9007 30.4619 35.9257 30.3246 35.9257Z" fill="white"/>
<defs>
<filter id="filter0_b_1_8449" x="-42.0777" y="-42.0596" width="133.61" height="129.138" filterUnits="userSpaceOnUse" color-interpolation-filters="sRGB">
<feFlood flood-opacity="0" result="BackgroundImageFix"/>
<feGaussianBlur in="BackgroundImageFix" stdDeviation="21.4754"/>
<feComposite in2="SourceAlpha" operator="in" result="effect1_backgroundBlur_1_8449"/>
<feBlend mode="normal" in="SourceGraphic" in2="effect1_backgroundBlur_1_8449" result="shape"/>
</filter>
</defs>
</svg>
